<svg width="38" height="47" viewBox="0 0 38 47" fill="none" xmlns="http://www.w3.org/2000/svg">
<path d="M31.7305 24.9696C31.7961 32.0823 37.925 34.4492 37.9929 34.4793C37.9411 34.6461 37.0136 37.8523 34.7639 41.164C32.8191 44.0272 30.8007 46.8797 27.6211 46.9388C24.4968 46.9968 23.4922 45.0727 19.9203 45.0727C16.3494 45.0727 15.2332 46.8798 12.2757 46.9969C9.20662 47.114 6.86942 43.9009 4.90857 41.0482C0.901634 35.213 -2.1605 24.5593 1.95117 17.3679C3.99376 13.7967 7.64402 11.5352 11.606 11.4772C14.6199 11.4193 17.4644 13.5195 19.3069 13.5195C21.1482 13.5195 24.605 10.9938 28.2391 11.3647C29.7604 11.4285 34.031 11.9837 36.7731 16.0268C36.5522 16.1648 31.6776 19.0232 31.7305 24.9696ZM25.8588 7.50426C27.4882 5.51754 28.5849 2.75185 28.2857 0C25.9371 0.0950851 23.097 1.5765 21.4123 3.56213C19.9025 5.32049 18.5803 8.13486 18.9371 10.8322C21.5549 11.0363 24.2293 9.49223 25.8588 7.50426Z" fill="black"/>
</svg>
