<svg width="42" height="43" viewBox="0 0 42 43" fill="none" xmlns="http://www.w3.org/2000/svg">
<g clip-path="url(#clip0)">
<path d="M41.9775 21.9024C41.9775 20.1407 41.8346 18.8551 41.5254 17.522H21.418V25.4734H33.2206C32.9827 27.4494 31.6977 30.4253 28.8422 32.4249L28.8022 32.6911L35.1597 37.6186L35.6002 37.6626C39.6454 33.9248 41.9775 28.4254 41.9775 21.9024Z" fill="#4285F4"/>
<path d="M21.4182 42.8521C27.2005 42.8521 32.0548 40.9475 35.6004 37.6622L28.8424 32.4246C27.034 33.6864 24.6068 34.5672 21.4182 34.5672C15.7549 34.5672 10.9482 30.8296 9.2347 25.6636L8.98354 25.6849L2.37283 30.8034L2.28638 31.0438C5.80811 38.043 13.042 42.8521 21.4182 42.8521Z" fill="#34A853"/>
<path d="M9.2346 25.664C8.78249 24.3308 8.52084 22.9023 8.52084 21.4264C8.52084 19.9503 8.78249 18.5219 9.21082 17.1887L9.19884 16.9048L2.50529 11.7041L2.28629 11.8083C0.834813 14.7128 0.00195312 17.9744 0.00195312 21.4264C0.00195312 24.8784 0.834813 28.1398 2.28629 31.0443L9.2346 25.664Z" fill="#FBBC05"/>
<path d="M21.4182 8.28472C25.4396 8.28472 28.1523 10.0226 29.699 11.4749L35.7431 5.5708C32.0311 2.11882 27.2005 0 21.4182 0C13.042 0 5.80811 4.80894 2.28638 11.8081L9.2109 17.1885C10.9481 12.0224 15.7548 8.28472 21.4182 8.28472Z" fill="#EB4335"/>
</g>
<defs>
<clipPath id="clip0">
<rect width="42" height="43" fill="white" transform="translate(-0.000244141)"/>
</clipPath>
</defs>
</svg>
