<svg width="166" height="51" viewBox="0 0 166 51" fill="none" xmlns="http://www.w3.org/2000/svg">
<path d="M26.9463 -6.10352e-05C13.0789 -6.10352e-05 1.83725 11.237 1.83725 25.0987L1.8373 25.1511L16.0759 11.325L38.4291 33.363L51.605 20.3421C51.2157 18.3136 50.5821 16.3719 49.7361 14.5488L38.5822 25.4048L25.4152 12.2432C23.823 10.6516 25.1601 7.70302 26.0276 6.42768L38.5822 19.1301L47.1353 10.1734C42.5609 4.00104 35.221 -6.10352e-05 26.9463 -6.10352e-05Z" fill="url(#paint0_linear)"/>
<path d="M38.4291 39.9437L16.0759 17.7527L2.51602 30.9198C3.06781 33.2424 3.94248 35.4399 5.09002 37.4625L16.5352 26.3231L29.7021 39.4846C31.2944 41.0762 29.9573 44.0248 29.0897 45.3002L16.5352 32.5978L7.98448 41.5521C12.5881 46.8486 19.3759 50.1975 26.9463 50.1975C39.9469 50.1975 50.6398 40.3212 51.9257 27.6649C51.9652 27.276 51.9958 26.8844 52.0173 26.4903L38.4291 39.9437Z" fill="url(#paint1_linear)"/>
<path d="M79.029 19.4147L77.6354 20.3326C77.3835 19.8462 77.0764 19.4539 76.7143 19.1558C76.2419 18.7949 75.6514 18.6144 74.9428 18.6144C74.1554 18.6144 73.5177 18.842 73.0295 19.297C72.5414 19.7363 72.2973 20.3169 72.2973 21.0387C72.2973 21.5722 72.4941 22.0272 72.8878 22.4038C73.2027 22.7176 73.7539 23.0471 74.5412 23.3923L76.0529 24.0513C77.1709 24.5378 77.9819 25.032 78.4858 25.5341C79.2416 26.2873 79.6195 27.2366 79.6195 28.382C79.6195 29.8099 79.1471 30.971 78.2023 31.8654C77.2575 32.7598 76.0686 33.207 74.6357 33.207C73.2185 33.207 72.0769 32.7833 71.2108 31.936C70.5022 31.2456 70.014 30.3199 69.7463 29.1587L71.447 28.688C71.5572 29.4725 71.8721 30.1394 72.3918 30.6886C72.9744 31.2692 73.7303 31.5594 74.6593 31.5594C75.6671 31.5594 76.4466 31.2613 76.9977 30.6651C77.5488 30.0531 77.8244 29.3156 77.8244 28.4526C77.8244 27.6995 77.5646 27.0875 77.0449 26.6168C76.7458 26.3344 76.1159 25.9735 75.1553 25.5341L73.7381 24.8751C72.7776 24.4358 72.0769 24.0043 71.6359 23.5806C70.9116 22.8902 70.5494 22.0351 70.5494 21.0151C70.5494 19.8069 70.9588 18.8341 71.7777 18.0966C72.6122 17.3435 73.6751 16.9669 74.9664 16.9669C75.9427 16.9669 76.7851 17.2023 77.4937 17.673C78.1393 18.0966 78.6511 18.6772 79.029 19.4147Z" fill="white"/>
<path d="M82.8219 17.2258H84.5698V32.9245H82.8219V17.2258Z" fill="white"/>
<path d="M90.3825 32.9245H88.6347V16.5668L100.917 29.3941V17.2258H102.665V33.6306L90.3825 20.8033V32.9245Z" fill="white"/>
<path d="M114.844 26.6874V25.0399H121.41V25.4164C121.41 27.3621 120.907 29.0175 119.899 30.3826C118.497 32.2655 116.545 33.207 114.041 33.207C111.711 33.207 109.766 32.4303 108.207 30.8769C106.648 29.3078 105.868 27.3778 105.868 25.0869C105.868 22.7961 106.648 20.8739 108.207 19.3205C109.782 17.7514 111.742 16.9669 114.088 16.9669C115.946 16.9669 117.553 17.4847 118.907 18.5203C119.6 19.0538 120.206 19.6736 120.726 20.3797L119.426 21.5565C118.97 20.9132 118.474 20.3718 117.938 19.9325C116.852 19.0538 115.576 18.6144 114.112 18.6144C112.238 18.6144 110.695 19.2342 109.482 20.4738C108.27 21.7134 107.664 23.2589 107.664 25.1105C107.664 26.4599 107.994 27.6446 108.656 28.6645C109.317 29.6687 110.12 30.4062 111.065 30.8769C112.025 31.3319 113.025 31.5594 114.065 31.5594C115.104 31.5594 116.049 31.3241 116.899 30.8533C117.765 30.3669 118.426 29.7236 118.883 28.9234C119.277 28.2487 119.489 27.5033 119.521 26.6874H114.844Z" fill="white"/>
<path d="M124.618 17.2258H126.366V31.277H130.712V32.9245H124.618V17.2258Z" fill="white"/>
<path d="M134.357 27.1016V17.0638H140.05V26.1826C140.05 26.9052 140.216 27.4393 140.548 27.7849C140.817 28.0677 141.197 28.209 141.687 28.209C142.209 28.209 142.596 28.0834 142.849 27.832C143.134 27.5493 143.276 26.9995 143.276 26.1826V17.0638H148.993V26.701C148.993 28.5546 148.44 30.0469 147.333 31.1779C146.052 32.4818 144.17 33.1337 141.687 33.1337C139.062 33.1337 137.101 32.4425 135.804 31.0601C134.84 30.0234 134.357 28.7039 134.357 27.1016Z" fill="url(#paint2_linear)"/>
<path d="M157.769 32.7802H152.171V17.0638H159.762C161.691 17.0638 163.233 17.6136 164.387 18.7132C165.462 19.7657 166 21.1402 166 22.8367C166 24.5175 165.478 25.8292 164.435 26.7717C163.486 27.62 162.189 28.0441 160.544 28.0441H157.769V32.7802ZM157.769 21.3758V24.0855H158.742C159.311 24.0855 159.738 23.9442 160.023 23.6614C160.276 23.4415 160.402 23.1195 160.402 22.6953C160.402 22.2712 160.26 21.9492 159.975 21.7293C159.69 21.4936 159.303 21.3758 158.813 21.3758H157.769Z" fill="url(#paint3_linear)"/>
<defs>
<linearGradient id="paint0_linear" x1="27.2525" y1="-6.10352e-05" x2="27.2525" y2="50.1975" gradientUnits="userSpaceOnUse">
<stop stop-color="#FFA04D"/>
<stop offset="1" stop-color="#F16B3F"/>
</linearGradient>
<linearGradient id="paint1_linear" x1="27.2525" y1="-6.10352e-05" x2="27.2525" y2="50.1975" gradientUnits="userSpaceOnUse">
<stop stop-color="#FFA04D"/>
<stop offset="1" stop-color="#F16B3F"/>
</linearGradient>
<linearGradient id="paint2_linear" x1="150.179" y1="17.0638" x2="150.179" y2="33.1337" gradientUnits="userSpaceOnUse">
<stop stop-color="#FFA04D"/>
<stop offset="1" stop-color="#F16B3F"/>
</linearGradient>
<linearGradient id="paint3_linear" x1="150.179" y1="17.0638" x2="150.179" y2="33.1337" gradientUnits="userSpaceOnUse">
<stop stop-color="#FFA04D"/>
<stop offset="1" stop-color="#F16B3F"/>
</linearGradient>
</defs>
</svg>
