<svg width="59" height="59" viewBox="0 0 59 59" fill="none" xmlns="http://www.w3.org/2000/svg">
<path fill-rule="evenodd" clip-rule="evenodd" d="M37.6425 36.615V36.6349C41.1129 31.4525 42.8662 26.1897 42.8861 19.9584C42.8861 13.7687 41.0094 8.38707 37.6425 3.22217H37.6223C34.5783 8.08282 32.6441 13.1629 32.4608 18.8295C32.2571 25.1576 34.0719 31.3865 37.6425 36.615ZM37.6425 35.4041V35.3851C36.6753 33.4892 36.1711 31.4302 36.1711 29.3359C36.1711 27.2793 36.6749 25.1208 37.6425 23.3076V23.2861C38.5708 25.2025 39.116 27.1979 39.116 29.3362C39.116 31.5345 38.5708 33.428 37.6425 35.4041ZM33.7506 18.6893C34.0968 14.0925 35.4837 9.95699 37.622 5.80554L37.6422 5.82329C40.1022 10.2618 41.3936 14.6144 41.6351 19.6563C41.7554 21.876 41.5347 24.0342 41.0713 26.2102C41.1717 23.9715 41.0505 21.876 40.6467 19.6973C40.1022 16.6734 39.0548 13.9704 37.6422 11.2291L37.622 11.2067C36.3725 13.6873 35.4243 16.1265 34.8403 18.809C34.297 21.3097 34.1748 23.6293 34.1748 26.2099C33.8115 23.6905 33.57 21.2268 33.7506 18.6893Z" fill="#236AB3"/>
<path fill-rule="evenodd" clip-rule="evenodd" d="M32.3192 42.7642C33.3284 41.7759 34.2754 41.272 35.7082 41.4125C38.0063 41.6345 39.4773 43.0066 39.5983 45.2839C39.8208 49.6395 34.0535 52.2817 30.4469 52.0793C25.2232 51.8173 21.7549 48.4507 20.9279 43.6525C20.4247 40.7269 21.5104 37.5207 23.5706 35.3046C25.604 33.1262 28.3676 32.2584 31.2298 32.199V19.1123C21.4504 19.1123 14.2329 26.0494 13.7284 35.5458C13.1839 46.1315 20.8661 53.3086 30.6654 53.6523C35.8683 53.8534 39.7596 51.8988 43.3304 48.5318V37.258H32.3189V42.7642H32.3192Z" fill="#236AB3"/>
</svg>
